<svg width="20" height="20" viewBox="0 0 20 20" fill="none" xmlns="http://www.w3.org/2000/svg">
<g id="edit-user-3">
<path id="primary" d="M7.5 17.5C3.79167 17.1917 2.5 15.8333 2.5 15.8333V15C2.5 13.8949 2.93899 12.8351 3.72039 12.0537C4.50179 11.2723 5.5616 10.8333 6.66667 10.8333H9.16667" stroke="white" stroke-width="1.3" stroke-linecap="round" stroke-linejoin="round"/>
<path id="primary_2" d="M13.3333 6.66667C13.3333 7.49076 13.089 8.29634 12.6311 8.98154C12.1733 9.66675 11.5225 10.2008 10.7612 10.5162C9.99982 10.8315 9.16205 10.914 8.35379 10.7533C7.54554 10.5925 6.80311 10.1957 6.22039 9.61294C5.63767 9.03023 5.24083 8.2878 5.08006 7.47954C4.91929 6.67129 5.00181 5.83351 5.31717 5.07215C5.63254 4.31079 6.16659 3.66005 6.85179 3.20221C7.537 2.74437 8.34258 2.5 9.16667 2.5C10.2717 2.5 11.3315 2.93899 12.1129 3.72039C12.8943 4.50179 13.3333 5.5616 13.3333 6.66667ZM17.2583 12.2417L16.0917 11.075C15.9359 10.9223 15.7265 10.8368 15.5083 10.8368C15.2902 10.8368 15.0808 10.9223 14.925 11.075L10.8333 15.1667V17.5H13.1667L17.2583 13.4083C17.411 13.2526 17.4965 13.0431 17.4965 12.825C17.4965 12.6069 17.411 12.3974 17.2583 12.2417Z" stroke="white" stroke-width="1.3" stroke-linecap="round" stroke-linejoin="round"/>
</g>
</svg>
