<svg width="50" height="50" viewBox="0 0 20 20" fill="none" xmlns="http://www.w3.org/2000/svg">
<g id="user-3">
<path id="primary" d="M14.1667 6.66667C14.1667 7.49076 13.9223 8.29634 13.4645 8.98154C13.0067 9.66675 12.3559 10.2008 11.5946 10.5162C10.8332 10.8315 9.99542 10.914 9.18716 10.7533C8.37891 10.5925 7.63648 10.1957 7.05376 9.61294C6.47104 9.03023 6.07421 8.2878 5.91344 7.47954C5.75266 6.67129 5.83518 5.83351 6.15054 5.07215C6.46591 4.31079 6.99996 3.66005 7.68516 3.20221C8.37037 2.74437 9.17595 2.5 10 2.5C11.1051 2.5 12.1649 2.93899 12.9463 3.72039C13.7277 4.50179 14.1667 5.5616 14.1667 6.66667ZM15.3667 13C15.2343 12.8385 15.046 12.7325 14.8392 12.7032C14.6324 12.6739 14.4221 12.7233 14.25 12.8417C12.9996 13.7017 11.5177 14.1621 10 14.1621C8.48241 14.1621 7.00049 13.7017 5.75004 12.8417C5.57794 12.7233 5.36766 12.6739 5.16085 12.7032C4.95405 12.7325 4.76579 12.8385 4.63337 13C3.79324 14.0375 3.33438 15.3317 3.33337 16.6667C3.33337 16.8877 3.42117 17.0996 3.57745 17.2559C3.73373 17.4122 3.94569 17.5 4.16671 17.5H15.8334C16.0544 17.5 16.2663 17.4122 16.4226 17.2559C16.5789 17.0996 16.6667 16.8877 16.6667 16.6667C16.6657 15.3317 16.2068 14.0375 15.3667 13Z" stroke="black" stroke-width="0.5" stroke-linecap="round" stroke-linejoin="round"/>
</g>
</svg>
