<svg width="14" height="14" viewBox="0 0 14 14" fill="none" xmlns="http://www.w3.org/2000/svg">
<path d="M13 13L9 9M10.3333 5.66667C10.3333 6.58965 10.0596 7.4919 9.54686 8.25933C9.03408 9.02676 8.30525 9.6249 7.45253 9.97811C6.5998 10.3313 5.66149 10.4237 4.75625 10.2437C3.851 10.0636 3.01948 9.61914 2.36684 8.9665C1.71419 8.31385 1.26974 7.48233 1.08967 6.57709C0.909606 5.67184 1.00202 4.73353 1.35523 3.88081C1.70844 3.02809 2.30658 2.29926 3.07401 1.78648C3.84144 1.2737 4.74369 1 5.66667 1C6.90435 1 8.09133 1.49167 8.9665 2.36683C9.84167 3.242 10.3333 4.42899 10.3333 5.66667Z" stroke="#959595" stroke-opacity="0.6" stroke-width="2" stroke-linecap="round" stroke-linejoin="round"/>
</svg>
